<mxfile host="65bd71144e">
    <diagram id="ZQF833xw1EoGUe7-4v3m" name="Page-1">
        <mxGraphModel dx="1128" dy="398" grid="1" gridSize="10" guides="1" tooltips="1" connect="1" arrows="1" fold="1" page="1" pageScale="1" pageWidth="850" pageHeight="1100" math="0" shadow="0">
            <root>
                <mxCell id="0"/>
                <mxCell id="1" parent="0"/>
                <mxCell id="241" value="" style="whiteSpace=wrap;html=1;shadow=0;glass=0;sketch=0;opacity=50;fillColor=#f5f5f5;strokeColor=#666666;fontColor=#333333;" parent="1" vertex="1">
                    <mxGeometry x="280" y="270" width="860" height="670" as="geometry"/>
                </mxCell>
                <mxCell id="45" value="&lt;b&gt;User&lt;/b&gt;" style="rounded=1;whiteSpace=wrap;html=1;fillColor=#ffe6cc;strokeColor=#d79b00;opacity=80;" parent="1" vertex="1">
                    <mxGeometry x="130" y="270" width="90" height="680" as="geometry"/>
                </mxCell>
                <mxCell id="99" value="Reserve seats / confirm reservation" style="edgeStyle=orthogonalEdgeStyle;html=1;exitX=0.5;exitY=0;exitDx=0;exitDy=0;entryX=0.5;entryY=1;entryDx=0;entryDy=0;startArrow=classic;startFill=1;" parent="1" source="89" target="90" edge="1">
                    <mxGeometry relative="1" as="geometry">
                        <mxPoint as="offset"/>
                    </mxGeometry>
                </mxCell>
                <mxCell id="100" value="Payment info / authorization" style="edgeStyle=orthogonalEdgeStyle;html=1;exitX=0.5;exitY=1;exitDx=0;exitDy=0;entryX=0;entryY=0.5;entryDx=0;entryDy=0;startArrow=classic;startFill=1;" parent="1" source="89" edge="1">
                    <mxGeometry relative="1" as="geometry">
                        <Array as="points">
                            <mxPoint x="380" y="850"/>
                        </Array>
                        <mxPoint x="720" y="850" as="targetPoint"/>
                    </mxGeometry>
                </mxCell>
                <mxCell id="101" style="edgeStyle=orthogonalEdgeStyle;html=1;exitX=1;exitY=0.75;exitDx=0;exitDy=0;entryX=0;entryY=0.5;entryDx=0;entryDy=0;startArrow=classic;startFill=1;" parent="1" source="89" edge="1">
                    <mxGeometry relative="1" as="geometry">
                        <mxPoint x="718.75" y="740" as="targetPoint"/>
                    </mxGeometry>
                </mxCell>
                <mxCell id="227" value="Input departure and arrival /&lt;br&gt;&amp;nbsp;output routes alternatives" style="edgeLabel;html=1;align=center;verticalAlign=middle;resizable=0;points=[];overflow=visible;perimeter=rectanglePerimeter;container=0;imageAspect=1;" parent="101" vertex="1" connectable="0">
                    <mxGeometry x="0.5479" y="1" relative="1" as="geometry">
                        <mxPoint x="-68" y="1" as="offset"/>
                    </mxGeometry>
                </mxCell>
                <mxCell id="102" style="edgeStyle=orthogonalEdgeStyle;html=1;exitX=1;exitY=0.25;exitDx=0;exitDy=0;entryX=0;entryY=0.5;entryDx=0;entryDy=0;startArrow=classic;startFill=1;" parent="1" source="89" target="277" edge="1">
                    <mxGeometry relative="1" as="geometry">
                        <Array as="points">
                            <mxPoint x="570" y="700"/>
                            <mxPoint x="570" y="560"/>
                        </Array>
                    </mxGeometry>
                </mxCell>
                <mxCell id="226" value="Create and interact with &lt;br&gt;account&lt;br&gt;" style="edgeLabel;html=1;align=center;verticalAlign=middle;resizable=0;points=[];" parent="102" vertex="1" connectable="0">
                    <mxGeometry x="0.0585" y="2" relative="1" as="geometry">
                        <mxPoint y="21" as="offset"/>
                    </mxGeometry>
                </mxCell>
                <mxCell id="219" value="Type / display" style="html=1;exitX=0;exitY=0.5;exitDx=0;exitDy=0;entryX=0.989;entryY=0.623;entryDx=0;entryDy=0;entryPerimeter=0;edgeStyle=orthogonalEdgeStyle;startArrow=classic;startFill=1;" parent="1" source="89" target="45" edge="1">
                    <mxGeometry relative="1" as="geometry">
                        <mxPoint x="250" y="720" as="targetPoint"/>
                    </mxGeometry>
                </mxCell>
                <mxCell id="298" value="Select/ display tickets" style="edgeStyle=orthogonalEdgeStyle;html=1;exitX=1;exitY=0.5;exitDx=0;exitDy=0;startArrow=block;startFill=1;" parent="1" source="89" target="297" edge="1">
                    <mxGeometry x="0.4601" relative="1" as="geometry">
                        <mxPoint as="offset"/>
                    </mxGeometry>
                </mxCell>
                <mxCell id="89" value="Terminal / app / website" style="rounded=1;whiteSpace=wrap;html=1;fillColor=#eeeeee;strokeColor=#36393d;" parent="1" vertex="1">
                    <mxGeometry x="310" y="680" width="140" height="80" as="geometry"/>
                </mxCell>
                <mxCell id="90" value="Bookings" style="rounded=1;whiteSpace=wrap;html=1;fillColor=#eeeeee;strokeColor=#36393d;" parent="1" vertex="1">
                    <mxGeometry x="310" y="540" width="140" height="80" as="geometry"/>
                </mxCell>
                <mxCell id="112" value="Checks authorizations,&lt;br&gt;&amp;nbsp;process payments" style="edgeStyle=orthogonalEdgeStyle;html=1;exitX=0.5;exitY=1;exitDx=0;exitDy=0;entryX=0.5;entryY=0;entryDx=0;entryDy=0;startArrow=classic;startFill=1;" parent="1" target="111" edge="1">
                    <mxGeometry relative="1" as="geometry">
                        <mxPoint x="790" y="890" as="sourcePoint"/>
                    </mxGeometry>
                </mxCell>
                <mxCell id="167" value="Periodic payments,&lt;br&gt;subcriptions /&lt;br&gt;&amp;nbsp;confirmation" style="edgeStyle=orthogonalEdgeStyle;html=1;exitX=1;exitY=0.5;exitDx=0;exitDy=0;entryX=1;entryY=0.5;entryDx=0;entryDy=0;startArrow=classic;startFill=1;" parent="1" edge="1" target="274">
                    <mxGeometry x="0.1088" relative="1" as="geometry">
                        <mxPoint x="860" y="830" as="targetPoint"/>
                        <Array as="points">
                            <mxPoint x="990" y="560"/>
                            <mxPoint x="990" y="850"/>
                        </Array>
                        <mxPoint x="858.75" y="560" as="sourcePoint"/>
                        <mxPoint as="offset"/>
                    </mxGeometry>
                </mxCell>
                <mxCell id="111" value="&lt;b&gt;Bank&lt;/b&gt;" style="rounded=1;whiteSpace=wrap;html=1;fillColor=#ffe6cc;strokeColor=#d79b00;opacity=80;" parent="1" vertex="1">
                    <mxGeometry x="437.5" y="980" width="702.5" height="80" as="geometry"/>
                </mxCell>
                <mxCell id="313" style="edgeStyle=orthogonalEdgeStyle;html=1;exitX=0.5;exitY=1;exitDx=0;exitDy=0;entryX=1;entryY=0.5;entryDx=0;entryDy=0;" edge="1" parent="1" source="215" target="297">
                    <mxGeometry relative="1" as="geometry">
                        <Array as="points">
                            <mxPoint x="790" y="428"/>
                            <mxPoint x="920" y="428"/>
                            <mxPoint x="920" y="660"/>
                        </Array>
                    </mxGeometry>
                </mxCell>
                <mxCell id="314" style="edgeStyle=orthogonalEdgeStyle;html=1;exitX=0.5;exitY=1;exitDx=0;exitDy=0;entryX=1;entryY=0.5;entryDx=0;entryDy=0;" edge="1" parent="1" source="215" target="275">
                    <mxGeometry relative="1" as="geometry">
                        <Array as="points">
                            <mxPoint x="790" y="430"/>
                            <mxPoint x="920" y="430"/>
                            <mxPoint x="920" y="750"/>
                        </Array>
                    </mxGeometry>
                </mxCell>
                <mxCell id="315" style="edgeStyle=orthogonalEdgeStyle;html=1;exitX=0.5;exitY=1;exitDx=0;exitDy=0;entryX=1;entryY=0.25;entryDx=0;entryDy=0;" edge="1" parent="1" source="215" target="274">
                    <mxGeometry relative="1" as="geometry">
                        <Array as="points">
                            <mxPoint x="790" y="430"/>
                            <mxPoint x="920" y="430"/>
                            <mxPoint x="920" y="830"/>
                        </Array>
                    </mxGeometry>
                </mxCell>
                <mxCell id="316" style="edgeStyle=orthogonalEdgeStyle;html=1;exitX=0.5;exitY=1;exitDx=0;exitDy=0;entryX=0.5;entryY=0;entryDx=0;entryDy=0;" edge="1" parent="1" source="215" target="90">
                    <mxGeometry relative="1" as="geometry">
                        <Array as="points">
                            <mxPoint x="790" y="430"/>
                            <mxPoint x="380" y="430"/>
                        </Array>
                    </mxGeometry>
                </mxCell>
                <mxCell id="215" value="&lt;b&gt;Tycoon&lt;/b&gt;" style="rounded=1;whiteSpace=wrap;html=1;fillColor=#ffe6cc;strokeColor=#d79b00;opacity=80;" parent="1" vertex="1">
                    <mxGeometry x="438.75" y="155" width="702.5" height="80" as="geometry"/>
                </mxCell>
                <mxCell id="238" value="&lt;h1&gt;Functional view - TRIP System&lt;/h1&gt;" style="text;strokeColor=none;align=left;fillColor=none;html=1;verticalAlign=middle;whiteSpace=wrap;rounded=0;" parent="1" vertex="1">
                    <mxGeometry x="130" y="100" width="670" height="30" as="geometry"/>
                </mxCell>
                <mxCell id="243" value="&lt;h1&gt;&lt;b&gt;&lt;font color=&quot;#080808&quot;&gt;TRIP SYSTEM&lt;/font&gt;&lt;/b&gt;&lt;/h1&gt;" style="edgeLabel;html=1;align=center;verticalAlign=middle;resizable=0;points=[];labelBackgroundColor=none;" parent="1" vertex="1" connectable="0">
                    <mxGeometry x="1065" y="900" as="geometry">
                        <mxPoint x="-16" y="15" as="offset"/>
                    </mxGeometry>
                </mxCell>
                <mxCell id="274" value="Payments" style="rounded=1;whiteSpace=wrap;html=1;fillColor=#eeeeee;strokeColor=#36393d;" parent="1" vertex="1">
                    <mxGeometry x="720" y="810" width="140" height="80" as="geometry"/>
                </mxCell>
                <mxCell id="275" value="Routes" style="rounded=1;whiteSpace=wrap;html=1;fillColor=#eeeeee;strokeColor=#36393d;" parent="1" vertex="1">
                    <mxGeometry x="720" y="710" width="140" height="80" as="geometry"/>
                </mxCell>
                <mxCell id="277" value="Accounts (Subs)" style="rounded=1;whiteSpace=wrap;html=1;fillColor=#eeeeee;strokeColor=#36393d;" parent="1" vertex="1">
                    <mxGeometry x="718.75" y="520" width="140" height="80" as="geometry"/>
                </mxCell>
                <mxCell id="297" value="Single Tickets" style="rounded=1;whiteSpace=wrap;html=1;fillColor=#eeeeee;strokeColor=#36393d;" parent="1" vertex="1">
                    <mxGeometry x="718.75" y="620" width="140" height="80" as="geometry"/>
                </mxCell>
                <mxCell id="303" value="Updates timetable / requests data for analysis" style="edgeStyle=none;html=1;exitX=0.5;exitY=0;exitDx=0;exitDy=0;entryX=0.5;entryY=1;entryDx=0;entryDy=0;startArrow=block;startFill=1;" parent="1" source="277" target="215" edge="1">
                    <mxGeometry x="0.614" relative="1" as="geometry">
                        <mxPoint x="788.75" y="280" as="sourcePoint"/>
                        <mxPoint as="offset"/>
                    </mxGeometry>
                </mxCell>
                <mxCell id="318" value="Retrieve data" style="edgeStyle=orthogonalEdgeStyle;html=1;exitX=0.5;exitY=1;exitDx=0;exitDy=0;entryX=0.5;entryY=0;entryDx=0;entryDy=0;startArrow=blockThin;startFill=1;" edge="1" parent="1" source="317" target="277">
                    <mxGeometry relative="1" as="geometry">
                        <Array as="points">
                            <mxPoint x="336" y="340"/>
                            <mxPoint x="789" y="340"/>
                        </Array>
                    </mxGeometry>
                </mxCell>
                <mxCell id="317" value="&lt;b&gt;Customer Service&lt;br&gt;&lt;/b&gt;" style="rounded=1;whiteSpace=wrap;html=1;fillColor=#ffe6cc;strokeColor=#d79b00;opacity=80;" vertex="1" parent="1">
                    <mxGeometry x="280" y="155" width="111.25" height="80" as="geometry"/>
                </mxCell>
            </root>
        </mxGraphModel>
    </diagram>
</mxfile>